<?xml version="1.0" standalone="no"?>
<!DOCTYPE svg PUBLIC "-//W3C//DTD SVG 20010904//EN"
 "http://www.w3.org/TR/2001/REC-SVG-20010904/DTD/svg10.dtd">
<svg version="1.0" xmlns="http://www.w3.org/2000/svg"
 width="128.000000pt" height="128.000000pt" viewBox="0 0 128.000000 128.000000"
 preserveAspectRatio="xMidYMid meet">
<metadata>
Created by potrace 1.14, written by Peter Selinger 2001-2017
</metadata>
<g transform="translate(0.000000,128.000000) scale(0.100000,-0.100000)"
fill="#000000" stroke="none">
<path d="M643 924 c-10 -15 -28 -37 -40 -51 -13 -13 -23 -30 -23 -37 0 -15
-28 -30 -48 -27 -8 1 -24 -9 -37 -23 -16 -17 -35 -26 -55 -26 -18 0 -30 -5
-30 -13 0 -17 -45 -38 -64 -31 -8 3 -19 -3 -25 -14 -6 -11 -25 -25 -43 -32
-50 -20 -60 -30 -47 -46 9 -11 20 -9 61 12 27 14 51 24 52 22 1 -2 13 -18 25
-35 38 -55 52 -45 66 46 l7 43 43 -42 c58 -57 76 -50 68 22 l-6 53 35 -32 c58
-55 80 -41 58 36 -5 19 -8 36 -6 39 2 2 23 -10 46 -27 24 -17 46 -28 51 -25
19 11 7 30 -41 64 -27 19 -50 40 -50 45 0 8 18 40 36 64 2 2 22 -11 44 -29 32
-26 44 -30 53 -21 9 10 2 21 -32 52 -51 46 -73 49 -98 13z m-43 -165 c0 -6 -4
-7 -10 -4 -5 3 -10 11 -10 16 0 6 5 7 10 4 6 -3 10 -11 10 -16z m-90 -40 c0
-18 -2 -19 -15 -9 -15 12 -12 30 6 30 5 0 9 -10 9 -21z m-110 -45 c0 -8 -5
-12 -10 -9 -6 4 -8 11 -5 16 9 14 15 11 15 -7z"/>
<path d="M972 918 c-7 -7 -12 -35 -12 -63 0 -82 -37 -98 -103 -44 -30 24 -41
29 -50 20 -9 -9 -2 -21 30 -52 82 -76 163 -39 163 75 l0 46 44 0 c51 0 52 -1
65 -59 l9 -42 -44 -21 c-24 -12 -46 -28 -49 -36 -3 -8 5 -32 17 -53 26 -46 53
-51 99 -16 l31 22 24 -28 c16 -19 24 -40 24 -65 l0 -37 -192 0 c-208 0 -205 1
-318 -65 -33 -19 -52 -20 -310 -20 -252 0 -350 8 -350 28 0 4 30 23 67 42 69
36 91 60 54 60 -33 0 -139 -57 -157 -85 -12 -18 -15 -38 -11 -67 7 -50 31 -85
77 -109 33 -18 68 -19 570 -19 513 0 536 1 567 20 44 26 67 73 59 119 -4 20
-10 70 -14 111 -6 55 -14 84 -31 107 -14 19 -21 38 -17 48 8 22 -19 72 -44 80
-13 4 -22 19 -26 43 -12 68 -18 72 -92 72 -40 0 -73 -5 -80 -12z m172 -195
c-45 -38 -55 -40 -72 -13 -11 18 -8 22 36 44 36 18 50 21 61 13 11 -9 6 -18
-25 -44z m-174 -212 c8 -37 29 -38 36 -2 5 24 12 31 30 31 23 0 24 -2 24 -85
0 -84 0 -85 -25 -85 -19 0 -25 5 -25 23 0 29 -15 51 -29 43 -6 -4 -11 -20 -11
-37 0 -26 -3 -29 -30 -29 l-30 0 0 86 0 85 27 -3 c19 -2 29 -10 33 -27z m190
-56 l0 -85 -30 0 -30 0 0 78 c0 43 3 82 7 85 3 4 17 7 30 7 22 0 23 -3 23 -85z
m-290 -5 l0 -80 -30 0 -30 0 0 70 c0 64 2 72 23 80 12 5 25 9 30 9 4 1 7 -35
7 -79z m370 5 c0 -18 -9 -43 -20 -56 l-19 -24 -1 74 c0 73 0 74 20 56 12 -11
20 -31 20 -50z m-460 -25 l0 -60 -30 0 c-29 0 -30 2 -30 44 0 34 5 47 23 59
12 9 25 16 30 16 4 1 7 -26 7 -59z m-702 24 c17 -5 22 -14 22 -40 0 -26 -3
-32 -15 -27 -9 3 -22 18 -30 34 -22 42 -21 44 23 33z m122 -49 c0 -32 -2 -35
-30 -35 -28 0 -30 3 -30 35 0 32 2 35 30 35 28 0 30 -3 30 -35z m90 0 c0 -31
-3 -35 -25 -35 -22 0 -25 4 -25 35 0 31 3 35 25 35 22 0 25 -4 25 -35z m100 0
c0 -32 -2 -35 -30 -35 -28 0 -30 3 -30 35 0 32 2 35 30 35 28 0 30 -3 30 -35z
m100 0 c0 -32 -2 -35 -30 -35 -28 0 -30 3 -30 35 0 32 2 35 30 35 28 0 30 -3
30 -35z m90 0 c0 -32 -2 -35 -30 -35 -28 0 -30 3 -30 35 0 32 2 35 30 35 28 0
30 -3 30 -35z m100 0 c0 -32 -2 -35 -30 -35 -28 0 -30 3 -30 35 0 32 2 35 30
35 28 0 30 -3 30 -35z"/>
</g>
</svg>
